<svg xmlns="http://www.w3.org/2000/svg" viewBox="0 0 391.09 391.09"><defs><style>.a,.d{fill:none;stroke:#593233;stroke-miterlimit:10;}.a{stroke-width:2px;}.b{fill:#f9becd;}.c{fill:#90d2c2;}.e{fill:#593233;}</style></defs><title>favicon</title><circle class="a" cx="195.55" cy="195.55" r="194.55"/><path class="b" d="M301.73,150.55a23.08,23.08,0,0,0-4.67,4.83,26.24,26.24,0,0,0-4.5,8.83c-1,3.69-.88,6.54-0.67,10.67a58.22,58.22,0,0,0,1.5,10.33c1.64,7,4,11.83,6.67,17.33a103.64,103.64,0,0,0,7.67,13.5c2.36,3.5,4.35,5.94,8.33,10.83,2.91,3.57,5.09,6.25,8.33,9.67a98.92,98.92,0,0,0,8.5,8.17,106.36,106.36,0,0,0,9.17,6.83,106.55,106.55,0,0,0,9.17,5.83c2,1.14,4.53,2.32,9.5,4.67,6.55,3.09,7.93,3.55,8.83,3.83,1.8,0.55,3.81,1,7.83,1.83a52.78,52.78,0,0,0,5.67,1,27.17,27.17,0,0,0,6,.17,40.15,40.15,0,0,0,7.25-1.42c4.2-1.17,4.36-1.71,4.75-1.92a17.45,17.45,0,0,0,4.67-3.83,20,20,0,0,0,3-4,20.44,20.44,0,0,0,2.17-6,54.92,54.92,0,0,0,.67-6.17,56.57,56.57,0,0,0,.33-6.67,39.75,39.75,0,0,0-.5-4.83,55.41,55.41,0,0,0-1.5-6.83,65.91,65.91,0,0,0-2.5-7.33c-0.69-1.69-.88-1.95-3.17-6.67-3.41-7-3.35-7.21-4.5-9.17-0.75-1.28-2-3.08-4.5-6.67s-3.82-5.49-5.5-7.67c-2.76-3.58-5-6.13-5.67-6.83-1.91-2.12-3.55-3.75-6.83-7s-4.89-4.84-6.83-6.5-3.28-2.66-6.17-4.83-4.42-3.33-6.67-4.83a100.63,100.63,0,0,0-8.67-5.17,86.82,86.82,0,0,0-9.67-4.5,68.54,68.54,0,0,0-10-3.17,41.62,41.62,0,0,0-9-1.33,39.21,39.21,0,0,0-7.17.5,26,26,0,0,0-6,1.5A22.62,22.62,0,0,0,301.73,150.55Z" transform="translate(-87.95 -83.07)"/><path class="b" d="M385.64,276.51c0.58,0.62-1.93,3.85-3.25,5.38a22.42,22.42,0,0,1-4,3.75,23.5,23.5,0,0,1-4.5,2.5,26.78,26.78,0,0,1-4.87,1.5,29.45,29.45,0,0,1-4.87.75,31.39,31.39,0,0,1-5.12-.12c-1.92-.16-3.32-0.41-5.25-0.75-2.18-.39-3.73-0.66-5.5-1.12a55.69,55.69,0,0,1-8.25-3.12c-1.82-.79-4-1.74-7.12-3.25-3.35-1.63-6.45-3.15-10.12-5.37A97.67,97.67,0,0,1,309,266.39c-1.23-1.09-3-2.85-6.62-6.37-6.26-6.13-9.39-9.2-11.25-11.37a103.9,103.9,0,0,1-9.25-13,107.24,107.24,0,0,1-6.62-11.5A75.54,75.54,0,0,1,269.52,209a63.9,63.9,0,0,1-2-13.25,32.51,32.51,0,0,1,.63-9.25,26.74,26.74,0,0,1,3.38-7.87,21.14,21.14,0,0,1,4.13-5,19.7,19.7,0,0,1,7.88-4.12c-0.24.6-.56,1.46-0.87,2.5a35.23,35.23,0,0,0-1.37,10.63,47.35,47.35,0,0,0,1.63,11.25,70.33,70.33,0,0,0,3.63,11c1.38,3.36,2.66,5.82,4.25,8.88,1,2,2.33,4.47,4.25,7.63,1.57,2.58,3.43,5.41,5.63,8.38,2.45,3.31,4.44,5.64,6.38,7.88,3.46,4,6.29,6.91,7.38,8,4.09,4.14,7.41,7,8.25,7.75,4.68,4,8.46,6.76,9.5,7.5,1.73,1.23,4.46,3.16,8.25,5.38a108.38,108.38,0,0,0,12.38,6.13,63.83,63.83,0,0,0,9.5,3.63,55,55,0,0,0,9.5,1.63,29.83,29.83,0,0,0,7.5.13,37.35,37.35,0,0,0,4.13-.75C384.86,276.59,385.42,276.26,385.64,276.51Z" transform="translate(-87.95 -83.07)"/><path class="c" d="M262.64,180.76c-0.25.73-.57,1.7-0.87,2.88a38.22,38.22,0,0,0-1,5.75,51.52,51.52,0,0,0-.12,8.75A63.66,63.66,0,0,0,263,211.39a80.85,80.85,0,0,0,5,13.25,103.22,103.22,0,0,0,6.63,12c2.41,3.85,4.68,7,6.5,9.38-0.52.36-1.29,0.85-2.25,1.38a35.28,35.28,0,0,1-4.5,2c-1.5.58-3,1.1-4.62,1.63-2.38.76-2.85,0.82-6,1.75-3.58,1.06-3.27,1.08-5.25,1.63a70.51,70.51,0,0,1-7,1.5c-1.08.19-2.36,0.39-7.25,1s-7.53.94-8.5,1c-2.82.18-5.34,0.12-10.37,0-3-.07-4.56-0.11-6.5-0.25-1.38-.1-3.9-0.31-10-1.25-5.37-.83-8-1.24-10.87-1.87a106.67,106.67,0,0,1-11.37-3.25,70.33,70.33,0,0,1-9.87-4,60.3,60.3,0,0,1-9-5.62,37.88,37.88,0,0,1-6.75-6.12,24.83,24.83,0,0,1-3.5-5.12,20.08,20.08,0,0,1-2.12-6.5,21.23,21.23,0,0,1,0-5.37,29.1,29.1,0,0,1,1.5-6.87,29.81,29.81,0,0,1,4.38-7.87c1-1.29,3.63-4.62,9.88-9a79.63,79.63,0,0,1,15.25-8.25,99.79,99.79,0,0,1,18.5-5.5,144.27,144.27,0,0,1,18-2.62,124.62,124.62,0,0,1,15-.5c5.93,0.18,10.86.77,15.88,1.38,3.06,0.37,5.6.73,7.38,1Z" transform="translate(-87.95 -83.07)"/><path class="c" d="M155.52,247.64a24.71,24.71,0,0,0,.88,12.25,25.91,25.91,0,0,0,4,7.5,33.15,33.15,0,0,0,5.13,5.38c3.54,3,6.6,4.65,10.88,6.88a76.41,76.41,0,0,0,12.63,5.5,84.36,84.36,0,0,0,11.25,2.63,138.81,138.81,0,0,0,17.75,2.5,133,133,0,0,0,15.5.13A116,116,0,0,0,248.89,289a108.16,108.16,0,0,0,14.25-3.37,127.29,127.29,0,0,0,17.13-6.5,58.82,58.82,0,0,0,10.13-5.62,52.64,52.64,0,0,0,6.88-6c0.58-.6,1-1.12,1.38-1.5-2.41-2.49-4.17-4.15-5.37-5.25a35.19,35.19,0,0,1-3.25-3.3c-0.6-.7-1.07-1.3-1.37-1.7a74.18,74.18,0,0,1-6.5,3.88,82.77,82.77,0,0,1-11,4.75,114.72,114.72,0,0,1-12.62,3.88c-4.5,1.07-7.91,1.57-10.87,2a136.79,136.79,0,0,1-15.5,1.38c-3.75.1-6.46,0-11.87-.25a118.54,118.54,0,0,1-13.5-1,101.1,101.1,0,0,1-11.62-2.62,98.76,98.76,0,0,1-11.75-3.62,73.94,73.94,0,0,1-10.87-5.25,42.89,42.89,0,0,1-7.25-5.12,36.56,36.56,0,0,1-4.87-5.25,34.37,34.37,0,0,1-3.25-5.25Z" transform="translate(-87.95 -83.07)"/><circle class="a" cx="195.88" cy="195.53" r="184.53"/><path class="d" d="M230.83,319.43a3.62,3.62,0,0,1-.33,1.83,4.43,4.43,0,0,1-1.33,1.5,5.37,5.37,0,0,1-2.08,1.25,5.19,5.19,0,0,1-1.58.17,6.36,6.36,0,0,1-2.17-.33,6.44,6.44,0,0,1-2.17-1.33,6,6,0,0,1-1.42-1.58,5.8,5.8,0,0,1-.75-2.75,8.23,8.23,0,0,1,.42-2.92,11.17,11.17,0,0,1,1.33-3.08,9.74,9.74,0,0,1,4-3.33c3.09-1.55,12.39-4.28,23.92-.92a38.54,38.54,0,0,1,10.42,4.75,41.07,41.07,0,0,1,7.08,6.08,63.64,63.64,0,0,1,9.67,12.58c0.65,1.12,2.4,5.22,5.92,13.42a60.54,60.54,0,0,1,2.83,7.92c0.43,1.54.73,2.84,0.92,3.75" transform="translate(-87.95 -83.07)"/><path class="d" d="M340.09,319.43a3.62,3.62,0,0,0,.33,1.83,4.43,4.43,0,0,0,1.33,1.5,5.37,5.37,0,0,0,2.08,1.25,5.17,5.17,0,0,0,1.58.17,6.34,6.34,0,0,0,2.16-.33,6.43,6.43,0,0,0,2.16-1.33,6,6,0,0,0,1.41-1.58,5.81,5.81,0,0,0,.75-2.75,8.24,8.24,0,0,0-.42-2.92,11.18,11.18,0,0,0-1.33-3.08,9.73,9.73,0,0,0-4-3.33c-3.08-1.55-12.37-4.28-23.88-.92a38.46,38.46,0,0,0-10.4,4.75,41,41,0,0,0-7.07,6.08,63.64,63.64,0,0,0-9.65,12.58c-0.65,1.12-2.4,5.22-5.91,13.42a60.6,60.6,0,0,0-2.83,7.92c-0.43,1.54-.73,2.84-0.92,3.75" transform="translate(-87.95 -83.07)"/><circle class="e" cx="140.9" cy="236.29" r="2.6"/><path class="d" d="M227.75,397.92a5.78,5.78,0,0,0,1.42,1.33,4.83,4.83,0,0,0,1.67.75,4.7,4.7,0,0,0,3.33-.75,6.6,6.6,0,0,0,2.67-3.42,8.92,8.92,0,0,0,.58-3.17,7.21,7.21,0,0,0-.33-3.08,6.53,6.53,0,0,0-2.67-3,10.69,10.69,0,0,0-4.83-1.75,13.18,13.18,0,0,0-12.75,5.67,15.8,15.8,0,0,0,3.08,22.42,21.63,21.63,0,0,0,8.17,3.92A24,24,0,0,0,236,418a23.58,23.58,0,0,0,10.75-3.17c1.25-.68,4.06-2.31,9-7.5a86.37,86.37,0,0,0,10.17-12.92c2.73-4.27,5.54-9.39,9.5-18.92a259.24,259.24,0,0,0,10-28.83" transform="translate(-87.95 -83.07)"/><path class="d" d="M343,397.92a5.78,5.78,0,0,1-1.42,1.33A4.83,4.83,0,0,1,340,400a4.7,4.7,0,0,1-3.34-.75,6.6,6.6,0,0,1-2.67-3.42,8.91,8.91,0,0,1-.58-3.17,7.2,7.2,0,0,1,.33-3.08,6.53,6.53,0,0,1,2.67-3,10.7,10.7,0,0,1,4.84-1.75A13.2,13.2,0,0,1,354,390.5a15.79,15.79,0,0,1-3.09,22.42,21.65,21.65,0,0,1-8.17,3.92,24,24,0,0,1-7.92,1.17A23.61,23.61,0,0,1,324,414.84c-1.25-.68-4.06-2.31-9-7.5a86.37,86.37,0,0,1-10.17-12.92c-2.73-4.27-5.55-9.39-9.51-18.92a259.14,259.14,0,0,1-10-28.83" transform="translate(-87.95 -83.07)"/><circle class="e" cx="230.04" cy="396.89" r="3.48" transform="translate(-105.29 -72.5) rotate(-2.54)"/><line class="d" x1="197.55" y1="223.17" x2="197.55" y2="336.21"/><path class="d" d="M279.5,317.35a2.77,2.77,0,0,1-.75.88,1.89,1.89,0,0,1-1.16.46,1.83,1.83,0,0,1-1.22-.53,2.86,2.86,0,0,1-.81-1.93,3.41,3.41,0,0,1,1-2.45,3.48,3.48,0,0,1,2.69-1,4.48,4.48,0,0,1,2.69,1.05,4.34,4.34,0,0,1,1.59,1.89,4.87,4.87,0,0,1,.25,2.45,5.94,5.94,0,0,1-1.69,3.71,4.84,4.84,0,0,1-2.56,1.19,5.23,5.23,0,0,1-3.5-.35,6.14,6.14,0,0,1-2.66-2.84,12.25,12.25,0,0,1-.94-5.12c-0.06-1.19,0-1.85-.19-3.36a6.34,6.34,0,0,0-.75-2.8,4.44,4.44,0,0,0-1.53-1.47,5.26,5.26,0,0,0-2.59-.74,4.42,4.42,0,0,0-2.84.46,4.28,4.28,0,0,0-1.28,1.23,6.56,6.56,0,0,0-.78,5.29,4.1,4.1,0,0,0,3,2.7,2.59,2.59,0,0,0,2.38-.6,3.13,3.13,0,0,0,.78-2.17,2.35,2.35,0,0,0-.53-1.68,1.86,1.86,0,0,0-1.53-.42,2.19,2.19,0,0,0-.56.14" transform="translate(-87.95 -83.07)"/><path class="d" d="M270.81,306h28.74a12.62,12.62,0,0,0,0-5.82c-1.46-5.94-7.73-11.12-14.83-10.87a16,16,0,0,0-13.91,9.73v7Z" transform="translate(-87.95 -83.07)"/><path class="d" d="M241.73,306h28.74a12.62,12.62,0,0,0,0-5.82c-1.46-5.94-7.73-11.12-14.83-10.87a16,16,0,0,0-13.91,9.73v7Z" transform="translate(-87.95 -83.07)"/><path class="d" d="M416.2,306h28.74a12.62,12.62,0,0,0,0-5.82c-1.46-5.94-7.73-11.12-14.83-10.87a16,16,0,0,0-13.91,9.73v7Z" transform="translate(-87.95 -83.07)"/><path class="d" d="M387.13,306h28.74a12.62,12.62,0,0,0,0-5.82c-1.46-5.94-7.73-11.12-14.83-10.87a16,16,0,0,0-13.91,9.73v7Z" transform="translate(-87.95 -83.07)"/><path class="d" d="M358,306h28.74a12.62,12.62,0,0,0,0-5.82c-1.46-5.94-7.73-11.12-14.83-10.87A16,16,0,0,0,358,299.07v7Z" transform="translate(-87.95 -83.07)"/><path class="d" d="M329,306H357.7a12.62,12.62,0,0,0,0-5.82c-1.46-5.94-7.73-11.12-14.83-10.87A16,16,0,0,0,329,299.07v7Z" transform="translate(-87.95 -83.07)"/><path class="d" d="M299.89,306h28.74a12.62,12.62,0,0,0,0-5.82c-1.46-5.94-7.73-11.12-14.83-10.87a16,16,0,0,0-13.91,9.73v7Z" transform="translate(-87.95 -83.07)"/><path class="d" d="M125.41,306h28.74a12.62,12.62,0,0,0,0-5.82c-1.46-5.94-7.73-11.12-14.83-10.87a16,16,0,0,0-13.91,9.73v7Z" transform="translate(-87.95 -83.07)"/><path class="d" d="M154.49,306h28.74a12.62,12.62,0,0,0,0-5.82c-1.46-5.94-7.73-11.12-14.83-10.87a16,16,0,0,0-13.91,9.73v7Z" transform="translate(-87.95 -83.07)"/><path class="d" d="M183.57,306h28.74a12.62,12.62,0,0,0,0-5.82c-1.46-5.94-7.73-11.12-14.83-10.87a16,16,0,0,0-13.91,9.73v7Z" transform="translate(-87.95 -83.07)"/><path class="d" d="M212.65,306h28.74a12.62,12.62,0,0,0,0-5.82c-1.46-5.94-7.73-11.12-14.83-10.87a16,16,0,0,0-13.91,9.73v7Z" transform="translate(-87.95 -83.07)"/><circle class="e" cx="341.52" cy="395.92" r="3.48" transform="translate(-105.14 -67.57) rotate(-2.54)"/><circle class="e" cx="254.15" cy="236.92" r="2.6"/><path class="d" d="M291,317.87a2.79,2.79,0,0,0,.76.88,1.94,1.94,0,0,0,1.18.46,1.88,1.88,0,0,0,1.24-.53,2.83,2.83,0,0,0,.83-1.93,3.39,3.39,0,0,0-1-2.45,3.58,3.58,0,0,0-2.74-1,4.6,4.6,0,0,0-2.74,1.05,4.36,4.36,0,0,0-1.62,1.89,4.78,4.78,0,0,0-.25,2.45,5.89,5.89,0,0,0,1.72,3.71,5,5,0,0,0,2.61,1.19,5.42,5.42,0,0,0,3.56-.35,6.18,6.18,0,0,0,2.71-2.84c0.76-1.49.84-3,1-5.12,0.06-1.19,0-1.85.19-3.36a6.26,6.26,0,0,1,.76-2.8,4.49,4.49,0,0,1,1.56-1.47,5.43,5.43,0,0,1,2.64-.74,4.57,4.57,0,0,1,2.9.46,4.32,4.32,0,0,1,1.3,1.23,6.46,6.46,0,0,1,.8,5.29,4.15,4.15,0,0,1-3,2.7,2.67,2.67,0,0,1-2.42-.6,3.09,3.09,0,0,1-.8-2.17,2.32,2.32,0,0,1,.54-1.68,1.92,1.92,0,0,1,1.56-.42,2.26,2.26,0,0,1,.57.14" transform="translate(-87.95 -83.07)"/></svg>